
<svg xmlns="http://www.w3.org/2000/svg" width="666.66669" height="666.66669">
  <defs>
    <clipPath clipPathUnits="userSpaceOnUse" id="a">
      <path d="M0 500h500V0H0z"/>
    </clipPath>
    <clipPath clipPathUnits="userSpaceOnUse" id="b">
      <path d="M0 500h500V0H0z"/>
    </clipPath>
    <clipPath clipPathUnits="userSpaceOnUse" id="c">
      <path d="M0 500h500V0H0z"/>
    </clipPath>
  </defs>
  <path d="M0 666.66667h666.66665V.00002H0z" fill="#fff"/>
  <g clip-path="url(#a)" transform="matrix(1.33333 0 0 -1.33333 0 666.66667)">
    <path d="M150.9547 236.3885v13.845c0 2.606.094 6.121.285 10.547.189 4.424.338 6.746.448 6.963h-.896c-1.847-4.181-3.937-8.091-6.271-11.728l-13.194-19.627zm44.874-24.026h-13.112v-23.048h-31.762v23.048h-47.481v23.619l49.517 72.402h29.726v-71.995h13.112zM236.2241 248.6863c0-13.466.841-22.723 2.525-27.772 1.682-5.049 4.506-7.574 8.47-7.574 4.017 0 6.853 2.606 8.51 7.818 1.656 5.212 2.484 14.388 2.484 27.528 0 13.193-.843 22.437-2.524 27.731-1.684 5.294-4.508 7.94-8.47 7.94-3.964 0-6.788-2.552-8.47-7.655-1.684-5.104-2.525-14.443-2.525-28.016m53.996 0c0-21.067-3.53-36.5-10.588-46.301-7.058-9.8-17.864-14.699-32.413-14.699-14.226 0-24.949 5.116-32.17 15.351-7.222 10.233-10.832 25.451-10.832 45.649 0 21.175 3.529 36.702 10.588 46.585 7.057 9.882 17.863 14.822 32.414 14.822 14.171 0 24.879-5.145 32.128-15.433 7.249-10.29 10.873-25.614 10.873-45.974M346.4152 236.3885v13.845c0 2.606.094 6.121.285 10.547.189 4.424.338 6.746.448 6.963h-.896c-1.846-4.181-3.937-8.091-6.271-11.728l-13.193-19.627zm44.874-24.026h-13.112v-23.048h-31.762v23.048h-47.481v23.619l49.517 72.402h29.726v-71.995h13.112z" fill="#4f46e5"/>
    <path d="M55.7504 281.9635h48.136M115.4413 281.9635h10.275M47.0329 295.5121h86.175M39.9397 295.5121h-7.093M47.0329 308.3832h28.61M83.3029 308.3832h60.086M396.009 174.4761h51.512M455.8993 174.4761h7.451M406.2956 188.0247h67.508M401.1523 188.0247h-5.143M396.009 200.8958h31.032M432.5953 200.8958h23.304" fill="none" stroke="#000" stroke-width="2.163" stroke-linecap="round" stroke-linejoin="round" stroke-miterlimit="10"/>
    <path d="M157.1193 236.8434v13.845c0 2.606.094 6.121.285 10.547.189 4.424.338 6.746.448 6.963h-.896c-1.847-4.181-3.937-8.091-6.271-11.728l-13.194-19.627zm44.874-24.026h-13.112v-23.048h-31.762v23.048h-47.481v23.619l49.517 72.402h29.726v-71.995h13.112zM242.3887 249.1413c0-13.466.841-22.723 2.525-27.772 1.682-5.049 4.506-7.574 8.47-7.574 4.017 0 6.853 2.606 8.51 7.818 1.656 5.212 2.484 14.388 2.484 27.528 0 13.193-.843 22.438-2.524 27.731-1.684 5.294-4.508 7.94-8.47 7.94-3.964 0-6.788-2.552-8.47-7.655-1.684-5.104-2.525-14.443-2.525-28.016zm53.996 0c0-21.067-3.53-36.5-10.588-46.301-7.058-9.8-17.864-14.699-32.413-14.699-14.226 0-24.949 5.116-32.17 15.351-7.222 10.233-10.832 25.451-10.832 45.649 0 21.175 3.529 36.702 10.588 46.585 7.057 9.882 17.863 14.822 32.414 14.822 14.171 0 24.88-5.145 32.128-15.433 7.249-10.29 10.873-25.614 10.873-45.974zM352.5798 236.8434v13.845c0 2.606.094 6.121.285 10.547.189 4.424.338 6.746.448 6.963h-.896c-1.846-4.181-3.937-8.091-6.271-11.728l-13.193-19.627zm44.874-24.026h-13.112v-23.048h-31.762v23.048h-47.481v23.619l49.517 72.402h29.726v-71.995h13.112z" fill="none" stroke="#000" stroke-width="3.268" stroke-miterlimit="10"/>
  </g>
  <g clip-path="url(#b)" transform="matrix(1.33333 0 0 -1.33333 0 666.66667)">
    <path d="M418.4893 284.9v11.039M410.7835 281.7081l-7.806 7.806M407.5917 274.0024h-11.039M410.7835 266.2966l-7.806-7.806M418.4893 263.1048v-11.039M426.195 266.2966l7.806-7.806M429.3868 274.0024h11.039M426.195 281.7081l7.806 7.806M72.2613 229.9335v7.979M66.6913 227.6264l-5.642 5.642M64.3841 222.0564h-7.979M66.6913 216.4864l-5.642-5.642M72.2613 214.1793v-7.979M77.8313 216.4864l5.642-5.642M80.1384 222.0564h7.979M77.8313 227.6264l5.642 5.642M288.1827 394.7464v7.979M282.6128 392.4393l-5.642 5.642M280.3056 386.8693h-7.979M282.6128 381.2993l-5.642-5.642M288.1827 378.9922v-7.979M293.7527 381.2993l5.642-5.642M296.0599 386.8693h7.979M293.7527 392.4393l5.642 5.642" fill="none" stroke="#000" stroke-width="2.163" stroke-linecap="round" stroke-linejoin="round" stroke-miterlimit="10"/>
  </g>
  <g clip-path="url(#c)" transform="matrix(1.33333 0 0 -1.33333 0 666.66667)">
    <path d="M133.2082 327.8023v34.528h179.493v-76.719" fill="none" stroke="#000" stroke-width="2.163" stroke-linecap="round" stroke-linejoin="round" stroke-miterlimit="10"/>
    <path d="M249.4365 386.8693v-43.23h119.027v-19.669M137.4914 323.5191c0-2.366-1.918-4.283-4.283-4.283-2.366 0-4.283 1.917-4.283 4.283 0 2.366 1.917 4.283 4.283 4.283 2.365 0 4.283-1.917 4.283-4.283zM253.7197 391.1525c0-2.366-1.918-4.283-4.283-4.283-2.366 0-4.283 1.917-4.283 4.283 0 2.366 1.917 4.283 4.283 4.283 2.365 0 4.283-1.917 4.283-4.283zM372.7468 319.2358c0-2.366-1.918-4.283-4.283-4.283-2.366 0-4.283 1.917-4.283 4.283 0 2.366 1.917 4.283 4.283 4.283 2.365 0 4.283-1.917 4.283-4.283zM316.9845 280.6167c0-2.366-1.918-4.283-4.283-4.283-2.366 0-4.283 1.917-4.283 4.283 0 2.366 1.917 4.283 4.283 4.283 2.365 0 4.283-1.917 4.283-4.283zM105.295 194.8365l-10.134-10.134M95.1607 194.8365l10.134-10.134M110.3622 341.9999l-10.134-10.134M100.2278 341.9999l10.134-10.134M439.0677 227.1236l-10.134-10.134M428.9334 227.1236l10.134-10.134" fill="none" stroke="#000" stroke-width="2.163" stroke-linecap="round" stroke-linejoin="round" stroke-miterlimit="10"/>
    <path d="M151.47 399.8386c-3.232 0-6.19-1.163-8.487-3.089-2.346 7.062-8.994 12.16-16.843 12.16-8.788 0-16.065-6.389-17.487-14.771-.927.265-1.902.415-2.913.415-5.843 0-10.579-4.736-10.579-10.579 0-5.375 4.011-9.803 9.202-10.48v-.099h47.107c7.302 0 13.222 5.919 13.222 13.221 0 7.302-5.92 13.222-13.222 13.222z" fill="none" stroke="#000" stroke-width="2.261" stroke-linecap="round" stroke-linejoin="round" stroke-miterlimit="10"/>
    <path d="M396.6047 332.5829c2.348 0 4.497-.845 6.166-2.244 1.704 5.13 6.534 8.834 12.236 8.834 6.384 0 11.67-4.642 12.704-10.731.673.192 1.381.302 2.116.302 4.244 0 7.685-3.441 7.685-7.686 0-3.905-2.914-7.122-6.685-7.613v-.073h-34.222c-5.305 0-9.605 4.301-9.605 9.606s4.3 9.605 9.605 9.605zM54.2532 167.8861c2.348 0 4.497-.845 6.166-2.244 1.704 5.13 6.534 8.834 12.236 8.834 6.384 0 11.67-4.642 12.704-10.731.673.192 1.381.302 2.116.302 4.244 0 7.685-3.441 7.685-7.686 0-3.905-2.914-7.122-6.685-7.613v-.073h-34.222c-5.305 0-9.605 4.301-9.605 9.606s4.3 9.605 9.605 9.605z" fill="none" stroke="#000" stroke-width="2.163" stroke-linecap="round" stroke-linejoin="round" stroke-miterlimit="10"/>
    <path d="M164.6918 406.1819s60.44 49.277 142.56 26.575c86.264-23.847 103.532-85.357 103.532-85.357" fill="none" stroke="#000" stroke-width="2.163" stroke-linecap="round" stroke-linejoin="round" stroke-miterlimit="10" stroke-dasharray="3.268,7.624"/>
    <path d="M73.4327 262.9603c-23.431-3.634-35.21-53.363-8.854-73.104" fill="none" stroke="#000" stroke-width="2.017" stroke-linecap="round" stroke-linejoin="round" stroke-miterlimit="10" stroke-dasharray="3.047,7.109"/>
    <path d="M177.5133 319.2358v25.346M171.3949 319.2358v12.63M270.6704 313.3723v18.536M263.7196 314.9526v7.688M257.5541 314.9526v12.85M183.3938 319.2358v12.673M351.3953 315.7083v5.669M345.2769 315.7083v13.81M357.2758 315.7083v9.864" fill="none" stroke="#000" stroke-width="2.163" stroke-linecap="round" stroke-linejoin="round" stroke-miterlimit="10"/>
  </g>
</svg>
