<?xml version="1.0" encoding="UTF-8" standalone="no"?>
<svg
   data-name="Layer 1"
   width="570"
   height="511.6748"
   viewBox="0 0 570 511.67479"
   version="1.1"
   id="svg56"
   sodipodi:docname="contact.svg"
   inkscape:version="1.1.1 (3bf5ae0d25, 2021-09-20)"
   xmlns:inkscape="http://www.inkscape.org/namespaces/inkscape"
   xmlns:sodipodi="http://sodipodi.sourceforge.net/DTD/sodipodi-0.dtd"
   xmlns="http://www.w3.org/2000/svg"
   xmlns:svg="http://www.w3.org/2000/svg">
  <defs
     id="defs60" />
  <sodipodi:namedview
     id="namedview58"
     pagecolor="#ffffff"
     bordercolor="#666666"
     borderopacity="1.0"
     inkscape:pageshadow="2"
     inkscape:pageopacity="0.0"
     inkscape:pagecheckerboard="0"
     showgrid="false"
     fit-margin-top="0"
     fit-margin-left="0"
     fit-margin-right="0"
     fit-margin-bottom="0"
     inkscape:zoom="1.4208242"
     inkscape:cx="256.89314"
     inkscape:cy="255.48551"
     inkscape:window-width="1920"
     inkscape:window-height="1013"
     inkscape:window-x="0"
     inkscape:window-y="0"
     inkscape:window-maximized="1"
     inkscape:current-layer="svg56" />
  <path
     d="m 563,193.67481 h -0.20019 L 448,242.69481 l -157.06982,67.07 a 5.06611,5.06611 0 0 1 -3.88037,0.02 L 125,242.55481 l -117.62011,-48.8 -0.17969,-0.08 H 7 a 7.00778,7.00778 0 0 0 -7,7 v 304 a 7.00779,7.00779 0 0 0 7,7 h 556 a 7.00778,7.00778 0 0 0 7,-7 v -304 a 7.00778,7.00778 0 0 0 -7,-7 z"
     fill="#ffffff"
     id="path2" />
  <path
     d="m 564.99927,195.67481 a 0.99681,0.99681 0 0 1 -0.5708,-0.1792 L 287.8696,2.89209 a 5.01546,5.01546 0 0 0 -5.72851,0.01 L 7.57434,195.49389 a 1.0001909,1.0001909 0 0 1 -1.14868,-1.6377 l 274.567,-192.5918 a 7.02216,7.02216 0 0 1 8.02,-0.0132 l 276.55884,192.603 a 1.00019,1.00019 0 0 1 -0.57227,1.8208 z"
     fill="#3f3d56"
     id="path4" />
  <polygon
     points="720.132,216.319 469.632,364.819 333.632,333.819 194.121,202.502 456.132,8.319 "
     fill="#e6e6e6"
     id="polygon6"
     transform="translate(-170.8568,-1.0001961e-5)" />
  <path
     d="M 174.25553,456.54107 H 44.81522 a 6.04737,6.04737 0 1 1 0,-12.09473 h 129.44031 a 6.04737,6.04737 0 1 1 0,12.09473 z"
     fill="#c2410c"
     id="path8" />
  <path
     d="M 91.25553,430.54107 H 44.81522 a 6.04737,6.04737 0 1 1 0,-12.09473 h 46.44031 a 6.04737,6.04737 0 1 1 0,12.09473 z"
     fill="#c2410c"
     id="path10" />
  <path
     d="m 288.96016,310.65947 a 7.56366,7.56366 0 0 1 -2.86914,-0.562 L 124.5002,243.04863 v -209.874 a 7.00818,7.00818 0 0 1 7,-7 h 310 a 7.00817,7.00817 0 0 1 7,7 v 210.0205 l -0.30371,0.12989 -156.28027,66.73972 a 7.6162,7.6162 0 0 1 -2.95606,0.59473 z"
     fill="#ffffff"
     id="path12" />
  <path
     d="m 288.96016,311.15898 a 8.07177,8.07177 0 0 1 -3.05957,-0.59863 L 124.0002,243.38261 v -210.208 a 7.50851,7.50851 0 0 1 7.5,-7.5 h 310 a 7.50851,7.50851 0 0 1 7.5,7.5 v 210.35058 l -156.88769,66.999 a 8.10962,8.10962 0 0 1 -3.15235,0.63479 z m -162.96,-69.1123 160.66309,66.66455 a 6.11822,6.11822 0 0 0 4.668,-0.0278 L 447.0002,242.20488 V 33.17461 a 5.50653,5.50653 0 0 0 -5.5,-5.5 h -310 a 5.50654,5.50654 0 0 0 -5.5,5.5 z"
     fill="#3f3d56"
     id="path14" />
  <path
     d="m 563,193.67481 h -0.20019 L 448,242.69481 l -157.06982,67.07 a 5.06611,5.06611 0 0 1 -3.88037,0.02 L 125,242.55481 l -117.62011,-48.8 -0.17969,-0.08 H 7 a 7.00778,7.00778 0 0 0 -7,7 v 304 a 7.00779,7.00779 0 0 0 7,7 h 556 a 7.00778,7.00778 0 0 0 7,-7 v -304 a 7.00778,7.00778 0 0 0 -7,-7 z m 5,311 a 5.002,5.002 0 0 1 -5,5 H 7 a 5.002,5.002 0 0 1 -5,-5 v -304 a 5.01106,5.01106 0 0 1 4.81006,-5 l 118.18994,49.04 161.28028,66.92 a 7.12081,7.12081 0 0 0 5.43994,-0.03 L 448,244.86481 l 115.2002,-49.19 a 5.0162,5.0162 0 0 1 4.7998,5 z"
     fill="#3f3d56"
     id="path16" />
  <path
     d="m 263.80321,104.62622 h -110 a 8,8 0 1 1 0,-16 h 110 a 8,8 0 0 1 0,16 z"
     fill="#c2410c"
     id="path18" />
  <path
     d="m 206.80321,70.62622 h -53 a 8,8 0 1 1 0,-16 h 53 a 8,8 0 0 1 0,16 z"
     fill="#c2410c"
     id="path20" />
  <path
     d="m 368.77172,184.62622 h -168 a 8,8 0 1 1 0,-16 h 168 a 8,8 0 0 1 0,16 z"
     fill="#cccccc"
     id="path22" />
  <path
     d="m 368.77172,221.62622 h -168 a 8,8 0 1 1 0,-16 h 168 a 8,8 0 0 1 0,16 z"
     fill="#cccccc"
     id="path24" />
</svg>
