
<svg xmlns="http://www.w3.org/2000/svg" font-size="none" overflow="inherit" preserveAspectRatio="xMidYMid" viewBox="0 0 206.9613 46.624001">
  <g xml:space="preserve" fill="#fff">
    <path d="M69.6258 8.31144h1.57382v18.68918h.0984L88.21667 8.31144h1.9181L79.51139 20.21352l12.04966 20.55811h-1.86893l-11.3611-19.37774-7.13136 7.86914v11.5086h-1.57382V8.31144m27.4484 20.75485c0-1.90168.32783-3.62312.98363-5.16407.65573-1.54111 1.53282-2.84444 2.6312-3.90999 1.09838-1.06562 2.35255-1.88534 3.76249-2.45916 1.40987-.57373 2.85257-.86067 4.32802-.86067 1.57378 0 3.00006.2459 4.27877.73772 1.27878.49182 2.37716 1.205 3.29521 2.13946.91806.93439 1.62303 2.0656 2.11484 3.39355.49182 1.32787.73773 2.84436.73773 4.5493v.76235c0 .24591-.0327.51644-.0983.81151H98.64798c0 1.57386.26232 3.02469.78689 4.35264.52465 1.32787 1.25416 2.4837 2.18863 3.46733.93447.98364 2.06568 1.74598 3.39355 2.28696 1.32795.54099 2.81161.81152 4.45097.81152 1.63944 0 3.11489-.24591 4.42642-.73781 1.31154-.49181 2.52466-1.13113 3.63946-1.91809l.68856 1.27878c-.52457.3279-1.07384.65573-1.64757.98363-.57381.32791-1.22141.62299-1.94272.8853-.72131.26225-1.50828.47541-2.36075.63932-.85247.164-1.81969.24592-2.90174.24592-1.67219 0-3.25425-.27867-4.74604-.83607-1.49186-.5574-2.79519-1.36891-3.90998-2.43454-1.1148-1.06562-2.0001-2.35254-2.65583-3.86073-.6558-1.50829-.98363-3.22964-.98363-5.16415m20.65644-1.37712c0-3.21322-.82785-5.62313-2.4837-7.22974-1.65578-1.60661-3.81158-2.40992-6.4674-2.40992-1.24596 0-2.44275.2295-3.59029.68856-1.14763.45899-2.17222 1.10659-3.07393 1.94272-.90164.83606-1.66399 1.84431-2.28696 3.02461-.62298 1.18037-1.01639 2.50832-1.18038 3.98377h19.08266-19.08266 19.08266m9.69363-22.42696h10.47579v29.0174c0 3.80336 1.75419 5.70513 5.26249 5.70513.78696 0 1.58206-.10662 2.38537-.31971.8033-.21315 1.69673-.54919 2.68036-1.00825l.59023 1.22955c-.95088.36064-1.86072.69676-2.72961 1.00825-.86889.31149-1.87714.4672-3.02469.4672-2.13125 0-3.77061-.56561-4.91824-1.69675-1.14754-1.13121-1.72135-3.02468-1.72135-5.68051V6.63925h-9.00035V5.26221m28.67795 23.80408c0-1.90168.32791-3.62312.98364-5.16407.6558-1.54111 1.5329-2.84444 2.63128-3.90999 1.09838-1.06562 2.35254-1.88534 3.76241-2.45916 1.40994-.57373 2.85256-.86067 4.32801-.86067 1.57386 0 3.00014.2459 4.27885.73772 1.27878.49182 2.37716 1.205 3.29522 2.13946.91805.93439 1.62302 2.0656 2.11484 3.39355.49181 1.32787.73772 2.84436.73772 4.5493v.76235c0 .24591-.0328.51644-.0983.81151h-20.45981c0 1.57386.26233 3.02469.78689 4.35264.52465 1.32787 1.25417 2.4837 2.18863 3.46733.93447.98364 2.0656 1.74598 3.39355 2.28696 1.32787.54099 2.81161.81152 4.45097.81152 1.63944 0 3.11489-.24591 4.42642-.73781 1.31146-.49181 2.52467-1.13113 3.63946-1.91809l.68856 1.27878c-.52465.3279-1.07384.65573-1.64765.98363-.57373.32791-1.22133.62298-1.94264.8853-.72139.26225-1.50828.4754-2.36075.63932-.85247.16399-1.81977.24591-2.90173.24591-1.67219 0-3.25426-.27866-4.74612-.83606-1.49179-.5574-2.7952-1.36891-3.90991-2.43454-1.1148-1.06563-2.0001-2.35254-2.6559-3.86074-.65573-1.50828-.98364-3.22964-.98364-5.16415m20.65652-1.37712c0-3.21322-.82793-5.62313-2.4837-7.22974-1.65586-1.60661-3.81166-2.40992-6.46748-2.40992-1.24588 0-2.44267.2295-3.59029.68856-1.14754.45899-2.17221 1.10659-3.07385 1.94272-.90172.83606-1.66399 1.84432-2.28696 3.02461-.62298 1.18037-1.01646 2.50832-1.18038 3.98377h19.08266-19.08266 19.08266m18.74314.8853-8.8036-11.31185h1.7706l4.81983 6.29528c.49182.65573.98363 1.31154 1.47545 1.96727.49182.6558 1.01638 1.31153 1.57378 1.96727h.19674c.5574-.65574 1.1148-1.32787 1.67219-2.01644.5574-.68856 1.08205-1.3607 1.57386-2.01643l4.72142-6.19695h1.67219l-8.90193 11.31185 9.6889 12.19716h-1.7706l-5.31165-6.73793c-.55739-.65581-1.123-1.37712-1.69673-2.16401-.57381-.78697-1.15583-1.52469-1.74598-2.21317h-.19674c-.59015.75407-1.16396 1.48366-1.72136 2.18855-.5574.70497-1.13121 1.4509-1.72136 2.23779l-5.21331 6.68877h-1.67219l9.59049-12.19716"/>
    <path xml:space="preserve" d="m16.92778 15.3273 11.69441 1.6864L30.73563 0l-9.30232 4.9775" opacity=".7"/>
    <path d="m36.18827 25.173-4.00639-6.2929-16.73444-2.4313L17.16345 0 7.00881 5.1487 1.57387 17.5924 0 37.1846l6.72258-1.7148.71459 9.0098 9.44005-3.7195 1.57326 5.8639 9.15511-8.009 16.87788-3.4301 5.86456-3.8617.71649-4.0045-14.87625-2.1457m-11.52571 3.2337-3.50978-.3703-4.02786-4.2856 8.05447.8858 1.22637 2.2177-1.7432 1.5524"/>
  </g>
</svg>
