
<svg xmlns="http://www.w3.org/2000/svg" font-size="none" overflow="inherit" preserveAspectRatio="xMidYMid" viewBox="0 0 175.15915 46.624001">
  <style>
    @keyframes opacity {
      0% { opacity: 0;}
      100% { opacity: 1;}
    }

    #fox {
      opacity: 0;
      animation: 2s opacity ease-in-out forwards;
    }

    #text {
      opacity: 0;
      animation: 2s opacity ease-in-out forwards;
      animation-delay: 0.5s
    }
  </style>
  <g xml:space="preserve" fill="#fff">
    <g id="text" style="line-height:1.25;-inkscape-font-specification:Raleway">
      <path d="M167.22893 166.91486q-.52 0-.84-.32-.32-.32-.36-.76-.04-.48.28-.88l21.4-27.12h-20.48q-.52 0-.88-.24-.32-.28-.32-.84 0-.44.32-.76.36-.32.88-.32h22.44q.56 0 .84.36.32.32.36.76.04.44-.2.76l-21.56 27.2h20.56q.48 0 .84.28.36.24.36.8 0 .4-.36.76-.36.32-.84.32zm35.43993.24q-3.2 0-5.76-1.44-2.52-1.48-4-4-1.44-2.56-1.44-5.72 0-3.2 1.44-5.72 1.48-2.56 4-4 2.56-1.48 5.76-1.48 3.2 0 5.72 1.48 2.52 1.44 3.96 4 1.48 2.52 1.48 5.72 0 3.16-1.48 5.72-1.44 2.52-3.96 4-2.52 1.44-5.72 1.44zm0-2.24q2.52 0 4.48-1.16 2-1.2 3.12-3.2 1.16-2.04 1.16-4.6 0-2.52-1.16-4.52-1.12-2.04-3.12-3.2-1.96-1.2-4.48-1.2-2.48 0-4.48 1.2-2 1.16-3.16 3.2-1.16 2-1.16 4.56 0 2.52 1.16 4.56 1.16 2 3.16 3.2 2 1.16 4.48 1.16zm17.95996-11.36q.24-2.56 1.4-4.52 1.16-2 3-3.12t4.08-1.12q1.52 0 2.36.36.84.36.64 1.28-.12.6-.56.72-.44.12-1.08.04-.6-.12-1.36-.12-2 0-3.56.84t-2.44 2.32q-.88 1.44-.88 3.32zm.4 13.36q-.52 0-.88-.32-.32-.36-.32-.88v-19.48q0-.56.32-.88.36-.32.88-.32.56 0 .88.32.32.32.32.88v19.48q0 .52-.32.88-.32.32-.88.32zm18.31999 0q-.52 0-.88-.32-.32-.36-.32-.88v-19.48q0-.56.32-.88.36-.32.88-.32.56 0 .88.32.32.32.32.88v19.48q0 .52-.32.88-.32.32-.88.32zm-.04-26.48q-.76 0-1.32-.52-.52-.56-.52-1.36 0-.92.56-1.36.6-.48 1.32-.48.68 0 1.24.48.6.44.6 1.36 0 .8-.56 1.36-.52.52-1.32.52zm19.23995 26.72q-3.2 0-5.76-1.44-2.52-1.48-4-4-1.44-2.56-1.44-5.76 0-3.2 1.44-5.72 1.48-2.52 4-3.96 2.56-1.48 5.76-1.48 2.88 0 5.16 1.24 2.32 1.24 3.6 3.32v-12.48q0-.56.32-.88.36-.32.88-.32.56 0 .88.32.32.32.32.88v19.32q-.04 3.12-1.52 5.6-1.48 2.48-4 3.92-2.48 1.44-5.64 1.44zm0-2.24q2.52 0 4.48-1.16 2-1.2 3.12-3.2 1.16-2.04 1.16-4.6 0-2.56-1.16-4.56-1.12-2-3.12-3.16-1.96-1.2-4.48-1.2-2.48 0-4.48 1.2-2 1.16-3.16 3.16-1.16 2-1.16 4.56 0 2.56 1.16 4.6 1.16 2 3.16 3.2 2 1.16 4.48 1.16z" aria-label="Zorid" font-family="Comfortaa" font-size="40" font-weight="300" style="-inkscape-font-specification:'Comfortaa Light'" transform="translate(-94.549609 -128.10286)"/>
    </g>
    <g id="fox">
      <path xml:space="preserve" d="m16.92778 16.9497378 11.69441 1.6864 2.11344-17.0137-9.30232 4.9775" opacity=".5"/>
      <path d="m36.18827 25.1729978-4.00639-6.2929-16.73444-2.4313 1.71601-16.4488-10.15464 5.1487-5.43494 12.4437L0 37.1845978l6.72258-1.7148.71459 9.0098 9.44005-3.7195 1.57326 5.8639 9.15511-8.009 16.87788-3.4301 5.86456-3.8617.71649-4.0045-14.87625-2.1457m-11.52571 3.2337-3.50978-.3703-4.02786-4.2856 8.05447.8858 1.22637 2.2177-1.7432 1.5524"/>
    </g>
  </g>
</svg>
